<?xml version="1.0" encoding="utf-8"?>
<!-- Generator: Adobe Illustrator 19.0.0, SVG Export Plug-In . SVG Version: 6.00 Build 0)  -->
<svg version="1.1" id="Layer_1" xmlns="http://www.w3.org/2000/svg" xmlns:xlink="http://www.w3.org/1999/xlink" x="0px" y="0px"
	 viewBox="0 0 300 300" style="enable-background:new 0 0 300 300;" xml:space="preserve">
<style type="text/css">
	.st0{fill:#01C401;}
	.st1{fill:#008902;}
</style>
<g>
	<path class="st0" d="M248.8,267.2c17.8-26.2,8.1-58.4-17.1-71.6c-24.5-12.8-54.5-2-66.3,23.5c-10.5,22.7-1.6,58,36.7,68
		c-14.1,3.2-27.2,4.8-40.5,5.1c-47.6,1.2-93.1-9.6-137.9-24c-5.7-1.8-11.3-4.2-17.1-5.8c-5.1-1.5-6.2-3.2-3.2-8.3
		c12.5-20.9,22.6-42.8,30.2-65.9c5.7-17.4,7.6-35.7,11.5-53.4c3.4-15.1,7.4-29.9,14.4-43.8c16.7-33.3,45.1-48.5,82.3-44.7
		c27.3,2.8,52.8,11.2,76.8,24.3c4.5,2.5,5.7,1.8,6.9-3.1c4.3-18.3,8.9-36.6,15-54.4c2.8-8.3,4.4-9.3,12.7-6.8
		C265.6,10,276,17,284.6,26.7c3.6,4.1,3.7,7.9,0,12.2c-12.6,14.6-26.9,27.5-41.3,40.4c-3.8,3.4-3,4.6,0.6,7.2
		c13.6,9.8,25.6,21.2,35.5,34.9c15,20.9,21.3,43.4,15.6,69.2c-6.3,28.6-16,55.1-40,73.9C253.3,265.8,252,268,248.8,267.2z
		 M100.7,85.5c-0.2-0.2-0.4-0.3-0.5-0.5C100.3,85.2,100.5,85.4,100.7,85.5c0.3,0.6,0.5,1.2,0.9,1.5c20.7,14.7,42.9,26.4,67.8,32.2
		c1.1,0.3,2.7-0.3,2.9,1.3c0.1,0.8-0.8,1.8-1.4,2.5c-3.3,3.5-6.4,7.1-9.6,10.7c-6.5,7.3-12.3,16.8-24.8,12.1c-0.2-0.1-0.4,0-0.6,0
		c-14.6,2.9-29.5,2.3-44.3,2.4c-2,0-4.3-0.8-6.1,1.9c16.1,6.2,32.9,7.3,50.4,10.5c-23.7,23.1-46.2,45.3-73.2,62.7
		c21-5.2,37.7-18.5,55.6-29.9c0.6,13.9,6.3,27.4-1.2,41.5c2-0.7,2.6-0.7,3-1.1c0.8-0.6,1.6-1.3,2.2-2.1c8.1-12.6,11.6-26.2,8.3-41
		c-0.9-4-0.8-6.3,2.7-9.1c18.2-14.7,36.1-29.7,53.9-44.9c6.4-5.5,6-5.9,9.7,1.3c0.5,1.1,1.3,2,1.9,3c7.1,11,13.3,22.3,16.6,35.1
		c0.3,1.1,0.5,3,2.7,2.5c1.8-5.6,0.1-11.1-0.7-16.6c-1.9-12.6-3.7-25.6-12.1-35.9c-3.7-4.6-2.7-6.7,0.4-10.4
		c8.9-10.3,16.3-21.7,23-33.6c0.7-1.3,2.4-3,1.3-4.3c-1.6-1.8-3.4,0-4.8,0.9c-11.9,7.4-23.2,15.8-33.6,25.1
		c-3.2,2.9-6.4,3.8-10.3,3.3c-19.5-2.4-38.6-6.2-57-13.2C116.5,91,109.2,86.6,100.7,85.5z"/>
	<path class="st1" d="M100.7,85.5c8.5,1,15.8,5.5,23.6,8.5c18.4,7.1,37.5,10.8,57,13.2c3.9,0.5,7.1-0.4,10.3-3.3
		c10.5-9.3,21.7-17.6,33.6-25.1c1.4-0.9,3.2-2.7,4.8-0.9c1.1,1.3-0.5,3-1.3,4.3c-6.6,11.9-14.1,23.3-23,33.6
		c-3.2,3.7-4.2,5.8-0.4,10.4c8.3,10.2,10.2,23.2,12.1,35.9c0.8,5.4,2.6,10.9,0.7,16.6c-2.2,0.5-2.4-1.3-2.7-2.5
		c-3.3-12.8-9.6-24.1-16.6-35.1c-0.6-1-1.4-2-1.9-3c-3.6-7.1-3.3-6.8-9.7-1.3c-17.8,15.2-35.7,30.2-53.9,44.9
		c-3.5,2.9-3.6,5.1-2.7,9.1c3.3,14.8-0.3,28.4-8.3,41c-0.5,0.8-1.4,1.5-2.2,2.1c-0.4,0.3-1.1,0.4-3,1.1c7.6-14.1,1.9-27.6,1.2-41.5
		c-17.9,11.3-34.6,24.7-55.6,29.9c26.9-17.4,49.5-39.6,73.2-62.7c-17.4-3.3-34.3-4.3-50.4-10.5c1.7-2.7,4.1-1.9,6.1-1.9
		c14.8-0.1,63.1-7.3,69.7-14.6c3.2-3.6,6.3-7.2,9.6-10.7c0.7-0.7,1.5-1.7,1.4-2.5c-0.2-1.6-1.8-1.1-2.9-1.3
		c-25-5.8-47.1-17.5-67.8-32.2C101.2,86.8,101,86.1,100.7,85.5L100.7,85.5z"/>
	<path class="st1" d="M100.7,85.6c-0.2-0.2-0.3-0.4-0.5-0.6C100.4,85.2,100.6,85.4,100.7,85.6C100.7,85.5,100.7,85.6,100.7,85.6z"/>
</g>
</svg>
